
<svg width="64" height="64" xmlns="http://www.w3.org/2000/svg"><g fill="none"><path d="M13.817 4h30.58l11.004 11.1v39.58a4.817 4.817 0 01-4.817 4.816H13.817A4.817 4.817 0 019 54.68V8.817A4.817 4.817 0 0113.817 4z" fill="#CDF4EE"/><path d="M55.4 15.1L44.354 4v8.94c.354 1.44 1.248 2.16 2.683 2.16H55.4z" fill="#05C0A5"/><path d="M27.707 28.587c.178 0 .351.056.5.16.269.19.43.514.43.867v.027c0 .398-.212.764-.538.932l-2.99 1.537 2.99 1.537c.326.168.537.534.537.933v.027c0 .352-.16.676-.43.866a.85.85 0 01-.89.066l-4.779-2.46c-.326-.168-.537-.534-.537-.932v-.073c0-.398.21-.764.537-.932l4.779-2.46a.859.859 0 01.39-.095zm9.434 0c.134 0 .27.033.39.095l4.778 2.46c.327.168.538.534.538.932v.073c0 .398-.211.764-.537.932l-4.779 2.46a.852.852 0 01-.891-.066 1.054 1.054 0 01-.43-.867v-.027c0-.398.212-.764.538-.932l2.989-1.537-2.989-1.536c-.327-.17-.537-.535-.537-.933v-.027c0-.353.16-.677.43-.866a.864.864 0 01.5-.16z" fill="#00C0A5"/><path d="M30.623 35.832c.172.244.45.39.742.39h.024a.92.92 0 00.875-.66l1.758-6.322a.98.98 0 00-.133-.85.913.913 0 00-.742-.39h-.024a.92.92 0 00-.875.66l-1.759 6.323a.98.98 0 00.134.849z" fill="#5A78F0"/></g></svg>